<svg width="614.13125px" height="315.2px" xmlns="http://www.w3.org/2000/svg" viewBox="-57.06562500000001 -82.6 614.13125 315.2" style="background: rgba(0, 0, 0, 0);" preserveAspectRatio="xMidYMid"><defs><linearGradient id="editing-outline-gradient" x1="-0.41354545764260087" x2="1.4135454576426008" y1="0.09326335692419985" y2="0.9067366430758002"><stop offset="0" stop-color="#ee4208"></stop><stop offset="1" stop-color="#4139ff"></stop></linearGradient><filter id="editing-outline" x="-100%" y="-100%" width="300%" height="300%"><feMorphology in="SourceGraphic" operator="dilate" radius="5" result="outline"></feMorphology><feComposite operator="out" in="outline" in2="SourceAlpha"></feComposite></filter></defs><g filter="url(#editing-outline)"><g transform="translate(32.039978981018066, 138.6750030517578)"><path d="M122.29-63.04L122.29-39.50L114.39-39.50L114.39-7.90L114.39-7.90Q107.44-3.95 94.09-0.87L94.09-0.87L94.09-0.87Q80.74 2.21 65.25 2.21L65.25 2.21L65.25 2.21Q35.71 2.21 18.96-13.35L18.96-13.35L18.96-13.35Q2.21-28.91 2.21-61.46L2.21-61.46L2.21-61.46Q2.21-94.80 18.88-109.97L18.88-109.97L18.88-109.97Q35.55-125.14 66.52-125.14L66.52-125.14L66.52-125.14Q81.53-125.14 94.64-121.98L94.64-121.98L94.64-121.98Q107.76-118.82 114.39-114.87L114.39-114.87L114.39-77.10L74.89-77.10L74.89-84.53L74.89-84.53Q74.89-91.17 72.13-94.09L72.13-94.09L72.13-94.09Q69.36-97.01 63.36-97.01L63.36-97.01L63.36-97.01Q57.35-97.01 54.59-94.09L54.59-94.09L54.59-94.09Q51.82-91.17 51.82-84.53L51.82-84.53L51.82-38.39L51.82-38.39Q51.82-31.76 54.59-28.84L54.59-28.84L54.59-28.84Q57.35-25.91 63.36-25.91L63.36-25.91L63.36-25.91Q69.36-25.91 72.13-28.84L72.13-28.84L72.13-28.84Q74.89-31.76 74.89-38.39L74.89-38.39L74.89-39.50L66.36-39.50L66.36-63.04L122.29-63.04ZM300.99-122.92L300.99-97.01L293.09-97.01L293.09-25.91L300.99-25.91L300.99 0L241.27 0L241.27-25.91L248.85-25.91L248.85-81.21L221.99 0L198.61 0L170.96-80.42L170.96-25.91L178.54-25.91L178.54 0L126.72 0L126.72-25.91L134.62-25.91L134.62-97.01L126.72-97.01L126.72-122.92L199.08-122.92L215.51-73.63L231.31-122.92L300.99-122.92ZM433.71-122.92L433.71-97.01L425.81-97.01L425.81-25.91L433.71-25.91L433.71 0L373.99 0L373.99-25.91L381.57-25.91L381.57-51.98L359.45-51.98L359.45-25.91L367.03-25.91L367.03 0L307.31 0L307.31-25.91L315.21-25.91L315.21-97.01L307.31-97.01L307.31-122.92L367.03-122.92L367.03-97.01L359.45-97.01L359.45-73.00L381.57-73.00L381.57-97.01L373.99-97.01L373.99-122.92L433.71-122.92Z" fill="url(#editing-outline-gradient)"></path></g></g><style>text {
  font-size: 64px;
  font-family: Arial Black;
  dominant-baseline: central;
  text-anchor: middle;
}</style></svg>